{
	"asset":{
		"generator":"Khronos glTF Blender I/O v4.5.49",
		"version":"2.0"
	},
	"scene":0,
	"scenes":[
		{
			"name":"Scene",
			"nodes":[
				0
			]
		}
	],
	"nodes":[
		{
			"mesh":0,
			"name":"Mesh_0"
		}
	],
	"materials":[
		{
			"doubleSided":true,
			"name":"170516_mia337_032122_600_200Kfaces_8192px_OBJ",
			"pbrMetallicRoughness":{
				"baseColorTexture":{
					"index":0
				},
				"metallicFactor":0,
				"roughnessFactor":0.6000000238418579
			}
		}
	],
	"meshes":[
		{
			"name":"Mesh_0",
			"primitives":[
				{
					"attributes":{
						"POSITION":0,
						"NORMAL":1,
						"TEXCOORD_0":2
					},
					"indices":3,
					"material":0
				}
			]
		}
	],
	"textures":[
		{
			"sampler":0,
			"source":0
		}
	],
	"images":[
		{
			"mimeType":"image/jpeg",
			"name":"170516_mia337_032122_600_200Kfaces_8192px_OBJ_baseColor",
			"uri":"170516_mia337_032122_600_200Kfaces_8192px_OBJ_baseColor.jpg"
		}
	],
	"accessors":[
		{
			"bufferView":0,
			"componentType":5126,
			"count":136705,
			"max":[
				0.43362557888031006,
				0.6854443550109863,
				0.22929897904396057
			],
			"min":[
				-0.39417243003845215,
				-0.33889347314834595,
				-0.25539493560791016
			],
			"type":"VEC3"
		},
		{
			"bufferView":1,
			"componentType":5126,
			"count":136705,
			"type":"VEC3"
		},
		{
			"bufferView":2,
			"componentType":5126,
			"count":136705,
			"type":"VEC2"
		},
		{
			"bufferView":3,
			"componentType":5125,
			"count":605388,
			"type":"SCALAR"
		}
	],
	"bufferViews":[
		{
			"buffer":0,
			"byteLength":1640460,
			"byteOffset":0,
			"target":34962
		},
		{
			"buffer":0,
			"byteLength":1640460,
			"byteOffset":1640460,
			"target":34962
		},
		{
			"buffer":0,
			"byteLength":1093640,
			"byteOffset":3280920,
			"target":34962
		},
		{
			"buffer":0,
			"byteLength":2421552,
			"byteOffset":4374560,
			"target":34963
		}
	],
	"samplers":[
		{
			"magFilter":9729,
			"minFilter":9987
		}
	],
	"buffers":[
		{
			"byteLength":6796112,
			"uri":"scene.bin"
		}
	]
}
