{
	"asset":{
		"generator":"Khronos glTF Blender I/O v4.5.49",
		"version":"2.0"
	},
	"scene":0,
	"scenes":[
		{
			"name":"Scene",
			"nodes":[
				5
			]
		}
	],
	"nodes":[
		{
			"mesh":0,
			"name":"pasted__L_Eye_pasted__polySurface122_pasted__lambert2_0"
		},
		{
			"children":[
				0
			],
			"name":"pasted__L_Eye_pasted__polySurface122"
		},
		{
			"children":[
				1
			],
			"name":"RootNode"
		},
		{
			"children":[
				2
			],
			"name":"f804b555d0254d7eb94845cac1756fbf.fbx"
		},
		{
			"children":[
				3
			],
			"name":"RootNode (model correction matrix)"
		},
		{
			"children":[
				4
			],
			"name":"RootNode (gltf orientation matrix)"
		}
	],
	"materials":[
		{
			"doubleSided":true,
			"emissiveFactor":[
				1,
				1,
				1
			],
			"emissiveTexture":{
				"index":0
			},
			"name":"pasted__lambert2",
			"pbrMetallicRoughness":{
				"baseColorFactor":[
					0.30659300088882446,
					0.30659300088882446,
					0.30659300088882446,
					1
				],
				"baseColorTexture":{
					"index":1
				},
				"metallicFactor":0
			}
		}
	],
	"meshes":[
		{
			"name":"pasted__L_Eye_pasted__polySurface122_pasted__lambert2_0",
			"primitives":[
				{
					"attributes":{
						"POSITION":0,
						"NORMAL":1,
						"TEXCOORD_0":2,
						"COLOR_0":3
					},
					"indices":4,
					"material":0
				}
			]
		}
	],
	"textures":[
		{
			"sampler":0,
			"source":0
		},
		{
			"sampler":0,
			"source":0
		}
	],
	"images":[
		{
			"mimeType":"image/png",
			"name":"diffuse",
			"uri":"diffuse.png"
		}
	],
	"accessors":[
		{
			"bufferView":0,
			"componentType":5126,
			"count":8911,
			"max":[
				4.513041973114014,
				13.59694766998291,
				6.2884039878845215
			],
			"min":[
				-5.112462997436523,
				-10.159977912902832,
				-4.6071062088012695
			],
			"type":"VEC3"
		},
		{
			"bufferView":1,
			"componentType":5126,
			"count":8911,
			"type":"VEC3"
		},
		{
			"bufferView":2,
			"componentType":5126,
			"count":8911,
			"type":"VEC2"
		},
		{
			"bufferView":3,
			"componentType":5126,
			"count":8911,
			"type":"VEC3"
		},
		{
			"bufferView":4,
			"componentType":5123,
			"count":34128,
			"type":"SCALAR"
		}
	],
	"bufferViews":[
		{
			"buffer":0,
			"byteLength":106932,
			"byteOffset":0,
			"target":34962
		},
		{
			"buffer":0,
			"byteLength":106932,
			"byteOffset":106932,
			"target":34962
		},
		{
			"buffer":0,
			"byteLength":71288,
			"byteOffset":213864,
			"target":34962
		},
		{
			"buffer":0,
			"byteLength":106932,
			"byteOffset":285152,
			"target":34962
		},
		{
			"buffer":0,
			"byteLength":68256,
			"byteOffset":392084,
			"target":34963
		}
	],
	"samplers":[
		{
			"magFilter":9729,
			"minFilter":9987
		}
	],
	"buffers":[
		{
			"byteLength":460340,
			"uri":"scene.bin"
		}
	]
}
